<?xml version="1.0" encoding="UTF-8" standalone="no"?>
<!DOCTYPE svg PUBLIC "-//W3C//DTD SVG 1.1//EN" "http://www.w3.org/Graphics/SVG/1.1/DTD/svg11.dtd">
<svg width="100%" height="100%" viewBox="0 0 209 38" version="1.1" xmlns="http://www.w3.org/2000/svg" xmlns:xlink="http://www.w3.org/1999/xlink" xml:space="preserve" xmlns:serif="http://www.serif.com/" style="fill-rule:evenodd;clip-rule:evenodd;stroke-linejoin:round;stroke-miterlimit:2;">
    <g transform="matrix(1,0,0,1,-143.542,-331.25)">
        <g transform="matrix(1,0,0,1,0,103.507)">
            <rect x="143.542" y="227.751" width="2.235" height="36.271"/>
        </g>
        <g transform="matrix(-0.995503,0.0947314,0.0947314,0.995503,163.463,366.773)">
            <path d="M12.424,-36.866C6.667,-33.042 2.756,-11.992 15.86,-0.753L12.424,-0.426C6.136,-4.332 -0.47,-22.742 8.825,-36.523L12.424,-36.866Z" style="fill-rule:nonzero;"/>
        </g>
        <g transform="matrix(0.995501,-0.0947534,-0.0947534,-0.995501,174.444,366.776)">
            <path d="M-1.751,-0.589C-7.507,3.235 -11.418,24.284 1.687,35.526L-1.751,35.853C-8.036,31.947 -14.621,13.556 -5.327,-0.223L-1.751,-0.589Z" style="fill-rule:nonzero;"/>
        </g>
        <g transform="matrix(0.995503,-0.0947262,-0.0947262,-0.995503,213.023,366.774)">
            <path d="M-1.75,-0.591C-7.507,3.233 -11.42,24.282 1.686,35.524L-1.75,35.851C-8.036,31.945 -14.668,13.558 -5.372,-0.221L-1.75,-0.591Z" style="fill-rule:nonzero;"/>
        </g>
        <g transform="matrix(0.995498,-0.0947806,-0.0947806,-0.995498,229.269,366.774)">
            <path d="M-1.751,-0.591C-7.508,3.233 -11.419,24.283 1.687,35.524L-1.751,35.852C-8.036,31.946 -14.652,13.558 -5.357,-0.222L-1.751,-0.591Z" style="fill-rule:nonzero;"/>
        </g>
        <g transform="matrix(0,1,1,0,170.883,347.485)">
            <path d="M1.088,-2.974L3.125,-2.974L3.125,1.088L0.936,1.088L1.088,-2.974Z" style="fill-rule:nonzero;"/>
        </g>
        <g transform="matrix(0,1,1,0,209.26,347.486)">
            <path d="M1.086,-2.973L3.124,-2.973L3.124,1.086L0.935,1.086L1.086,-2.973Z" style="fill-rule:nonzero;"/>
        </g>
        <g transform="matrix(0,1,1,0,225.505,347.486)">
            <path d="M1.086,-2.973L3.124,-2.973L3.124,1.086L0.935,1.086L1.086,-2.973Z" style="fill-rule:nonzero;"/>
        </g>
        <g transform="matrix(1,0,0,1,189.838,367.525)">
            <path d="M0,-36.274L0,0L8.935,0L8.935,-2.035L2.639,-2.035L2.639,-36.222L0,-36.274Z" style="fill-rule:nonzero;"/>
        </g>
        <g transform="matrix(1,0,0,1,246.897,367.534)">
            <path d="M0,-36.276L-0.202,-34.034L4.062,-34.034L4.062,0L6.701,0L6.701,-34.034L10.76,-34.034L10.76,-36.276L0,-36.276Z" style="fill-rule:nonzero;"/>
        </g>
        <g transform="matrix(1,0,0,1,239.384,367.534)">
            <path d="M0,-36.276L-2.641,-36.276C-6.499,-29.384 -4.874,-23.508 -2.437,-18.645C0,-13.781 2.437,-9.524 -2.437,0L0.406,0C3.655,-7.091 4.466,-11.347 0.406,-18.845C-3.655,-26.345 -2.843,-32.223 0,-36.276" style="fill-rule:nonzero;"/>
        </g>
        <g transform="matrix(1,0,0,1,264.875,361.751)">
            <path d="M0,5.787L1.689,5.787L2.294,2.761C2.507,1.678 2.655,0.637 2.655,0.637C2.666,0.701 2.751,1.636 3.006,2.783L3.664,5.787L5.289,5.787L7.074,-1.657L5.512,-1.657L4.907,1.146C4.779,1.763 4.525,3.367 4.503,3.599C4.503,3.599 4.323,2.337 4.185,1.645L3.505,-1.657L1.88,-1.657L1.221,1.328C0.998,2.347 0.871,3.398 0.839,3.684C0.839,3.684 0.754,2.634 0.446,1.253L-0.191,-1.657L-1.763,-1.657L0,5.787ZM7.57,5.723L9.12,5.723L9.641,3.971L11.807,3.971L12.328,5.723L13.921,5.723L11.595,-1.678L9.991,-1.678L7.57,5.723ZM10.395,1.37C10.533,0.818 10.745,-0.053 10.745,-0.053C10.745,-0.053 10.968,0.913 11.043,1.253C11.202,1.965 11.446,2.74 11.446,2.74L10.002,2.74C10.161,2.252 10.257,1.901 10.395,1.37M14.845,5.723L16.396,5.723L16.917,3.971L19.083,3.971L19.604,5.723L21.196,5.723L18.871,-1.678L17.268,-1.678L14.845,5.723ZM17.67,1.37C17.809,0.818 18.021,-0.053 18.021,-0.053C18.021,-0.053 18.245,0.913 18.318,1.253C18.478,1.965 18.723,2.74 18.723,2.74L17.277,2.74C17.437,2.252 17.532,1.901 17.67,1.37M22.762,5.723L26.659,5.723L26.924,4.493L24.28,4.493L24.28,-1.657L22.762,-1.657L22.762,5.723ZM29.33,5.787L31.019,5.787L31.624,2.761C31.836,1.678 31.985,0.637 31.985,0.637C31.996,0.701 32.081,1.636 32.336,2.783L32.994,5.787L34.619,5.787L36.403,-1.657L34.842,-1.657L34.237,1.146C34.109,1.763 33.854,3.367 33.833,3.599C33.833,3.599 33.652,2.337 33.514,1.645L32.835,-1.657L31.21,-1.657L30.551,1.328C30.328,2.347 30.201,3.398 30.169,3.684C30.169,3.684 30.084,2.634 29.776,1.253L29.139,-1.657L27.567,-1.657L29.33,5.787ZM38.235,5.723L39.784,5.723L39.784,-1.657L38.235,-1.657L38.235,5.723ZM42.284,4.449C42.284,5.245 42.252,5.543 42.135,5.808C41.998,6.105 41.657,6.467 41.275,6.7L41.965,7.465C42.634,7.21 43.473,6.637 43.686,5.734C43.759,5.436 43.792,5.245 43.792,4.289L43.792,-1.657L42.284,-1.657L42.284,4.449ZM46.001,5.723L47.52,5.723L47.52,1.869L49.76,5.723L51.714,5.723L49.091,1.762L51.449,-1.657L49.623,-1.657L47.52,1.709L47.52,-1.657L46.001,-1.657L46.001,5.723Z" style="fill-rule:nonzero;"/>
        </g>
        <g transform="matrix(1,0,0,1,263.07,353.367)">
            <path d="M0,-4.897L1.806,-4.897L1.806,1.252L3.312,1.252L3.312,-4.897L5.075,-4.897L5.32,-6.127L0,-6.127L0,-4.897ZM6.776,1.252L8.251,1.252L8.251,-2.04L10.377,-2.04L10.377,1.252L11.883,1.252L11.883,-6.127L10.377,-6.127L10.377,-3.26L8.251,-3.26L8.251,-6.127L6.776,-6.127L6.776,1.252ZM14.179,1.252L18.479,1.252L18.479,-0.021L15.686,-0.021L15.686,-1.998L17.778,-1.998L17.778,-3.207L15.665,-3.207L15.665,-4.918L18.192,-4.918L18.383,-6.127L14.179,-6.127L14.179,1.252ZM19.425,1.252L20.976,1.252L21.496,-0.5L23.663,-0.5L24.183,1.252L25.776,1.252L23.45,-6.149L21.847,-6.149L19.425,1.252ZM22.25,-3.101C22.388,-3.653 22.601,-4.524 22.601,-4.524C22.601,-4.524 22.824,-3.557 22.898,-3.218C23.057,-2.506 23.302,-1.731 23.302,-1.731L21.857,-1.731C22.016,-2.219 22.112,-2.57 22.25,-3.101M25.703,-4.897L27.508,-4.897L27.508,1.252L29.015,1.252L29.015,-4.897L30.778,-4.897L31.023,-6.127L25.703,-6.127L25.703,-4.897ZM32.458,1.252L36.758,1.252L36.758,-0.021L33.965,-0.021L33.965,-1.998L36.057,-1.998L36.057,-3.207L33.943,-3.207L33.943,-4.918L36.471,-4.918L36.662,-6.127L32.458,-6.127L32.458,1.252ZM38.501,1.252L39.955,1.252L39.955,-1.827C40.072,-1.816 40.114,-1.794 40.189,-1.763C40.444,-1.636 40.678,-1.285 41.411,0.043C41.698,0.563 41.815,0.764 42.101,1.252L43.853,1.252C43.853,1.252 42.505,-1.083 42.08,-1.614C41.985,-1.742 41.921,-1.806 41.772,-1.922C42.685,-1.944 43.417,-2.857 43.417,-3.961C43.417,-5.258 42.558,-6.127 41.251,-6.127L38.501,-6.138L38.501,1.252ZM40.486,-4.94C40.848,-4.94 41.156,-4.897 41.326,-4.833C41.677,-4.695 41.857,-4.387 41.857,-3.93C41.857,-3.622 41.751,-3.357 41.57,-3.187C41.368,-3.006 41.092,-2.942 40.454,-2.942L39.955,-2.942L39.965,-4.94L40.486,-4.94ZM49.229,1.252L53.529,1.252L53.529,-0.021L50.735,-0.021L50.735,-1.998L52.828,-1.998L52.828,-3.207L50.714,-3.207L50.714,-4.918L53.242,-4.918L53.433,-6.127L49.229,-6.127L49.229,1.252ZM55.357,1.252L56.789,1.252L56.747,-1.901C56.736,-2.517 56.726,-3.388 56.673,-3.994C56.811,-3.537 57.268,-2.496 57.671,-1.572L58.936,1.252L60.485,1.252L60.485,-6.127L59.074,-6.127L59.106,-3.112C59.117,-2.602 59.17,-1.657 59.223,-1.083C59.074,-1.614 58.787,-2.39 58.415,-3.176L57.002,-6.127L55.357,-6.127L55.357,1.252ZM66.552,1.252L68.037,1.252L68.037,-2.008L69.917,-2.008L69.917,-3.218L68.037,-3.218L68.037,-4.908L70.385,-4.908L70.555,-6.107L66.552,-6.107L66.552,1.252ZM72.106,1.252L73.655,1.252L73.655,-6.128L72.106,-6.128L72.106,1.252ZM75.972,1.252L79.869,1.252L80.135,0.022L77.49,0.022L77.49,-6.127L75.972,-6.127L75.972,1.252ZM81.526,1.252L83.024,1.252L83.279,-2.602C83.311,-3.059 83.332,-3.473 83.332,-3.909C83.332,-3.909 83.534,-2.985 83.629,-2.624L84.681,1.252L85.987,1.252L87.156,-2.783C87.283,-3.229 87.336,-3.442 87.421,-3.866C87.421,-3.473 87.453,-3.155 87.485,-2.687L87.761,1.252L89.227,1.252L88.568,-6.127L86.625,-6.127L85.626,-2.464C85.509,-2.029 85.435,-1.689 85.361,-1.306C85.297,-1.689 85.244,-1.901 85.106,-2.432L84.139,-6.127L82.217,-6.127L81.526,1.252Z" style="fill-rule:nonzero;"/>
        </g>
    </g>
</svg>
